<svg width="360" height="242" viewBox="0 0 360 242" fill="none" xmlns="http://www.w3.org/2000/svg">
<path d="M355.44 48.0614C350.598 44.7994 343.858 44.002 340.471 46.2904L272.198 92.1818C268.793 94.4664 262.47 93.9336 258.085 90.9858C253.734 88.0573 252.936 83.8024 256.334 81.514L324.607 35.6226C328 33.3419 326.809 28.8147 321.979 25.5642C317.132 22.3098 310.397 21.5126 307.01 23.7934L238.685 69.6539C235.287 71.9347 228.957 71.4057 224.572 68.4618C220.21 65.5294 219.423 61.2745 222.822 58.9899L291.141 13.1292C294.534 10.8446 293.353 6.32143 288.518 3.07469C283.682 -0.183551 276.942 -0.980912 273.549 1.30369L199.802 50.875C175.772 67.0742 183.465 78.3515 197.179 88.5632L7.4183 216.129C-1.89352 222.389 -2.52645 232.209 6.01557 237.952C14.5576 243.698 29.1725 243.276 38.49 237.012L228.25 109.45C243.464 118.677 260.263 123.86 284.406 107.63L358.068 58.116C361.456 55.8314 360.269 51.3082 355.44 48.0614ZM194.248 54.6085L199.802 50.875L199.887 50.8137L194.248 54.6085ZM114.211 135.298L157.291 106.338L113.629 76.9908C79.0161 53.7193 44.4831 30.5053 23.6641 16.5102C20.7274 14.5438 17.0551 13.643 12.9495 13.988C10.0527 14.2333 5.79306 16.1 5.04607 20.8915C2.00105 40.5636 23.4587 74.7062 99.7267 125.972C104.75 129.349 109.575 132.446 114.211 135.298ZM315.877 212.944C325.195 219.207 325.805 229.028 317.263 234.774C308.721 240.516 294.123 240.094 284.806 233.831L188.984 163.096C182.427 163.054 175.094 162.038 166.825 159.788L201.809 136.268L224.612 151.597L315.877 212.944Z" fill="#100F0D"/>
</svg>
